<svg version="1.0" xmlns="http://www.w3.org/2000/svg"
 width="65.000000pt" height="65.000000pt" viewBox="0 0 65.000000 65.000000"
 preserveAspectRatio="xMidYMid meet">
<g transform="translate(0.000000,65.000000) scale(0.100000,-0.100000)"
fill="#3989D4" stroke="none">
<path d="M32 634 c-15 -10 -22 -25 -22 -47 0 -28 16 -48 110 -142 61 -60 110
-114 110 -120 0 -6 -49 -60 -110 -120 -94 -94 -110 -114 -110 -142 0 -34 29
-63 64 -63 11 0 69 49 138 117 l118 117 113 -112 c84 -84 119 -112 138 -112
38 0 62 23 62 59 0 28 -16 48 -111 144 l-112 112 112 112 c96 96 111 116 111
144 0 36 -24 59 -62 59 -19 0 -54 -28 -138 -112 l-113 -112 -118 117 c-69 68
-127 117 -138 117 -11 0 -30 -7 -42 -16z"/>
</g>
</svg>
